<?xml version="1.0" encoding="UTF-8" standalone="no"?>
<!-- Created with Inkscape (http://www.inkscape.org/) -->

<svg xmlns:dc="http://purl.org/dc/elements/1.1/" xmlns:cc="http://creativecommons.org/ns#" xmlns:rdf="http://www.w3.org/1999/02/22-rdf-syntax-ns#" xmlns:svg="http://www.w3.org/2000/svg" xmlns="http://www.w3.org/2000/svg" xmlns:sodipodi="http://sodipodi.sourceforge.net/DTD/sodipodi-0.dtd" xmlns:inkscape="http://www.inkscape.org/namespaces/inkscape" width="595.27557pt" height="841.88977pt" viewBox="0 0 210 297" version="1.1" id="svg8" inkscape:version="0.92.4 (5da689c313, 2019-01-14)" sodipodi:docname="Prototyping.svg">
<defs id="defs2" />
<sodipodi:namedview id="base" pagecolor="#000000" bordercolor="#666666" borderopacity="1.0" inkscape:pageopacity="0" inkscape:pageshadow="2" inkscape:zoom="1" inkscape:cx="317.86883" inkscape:cy="960.27424" inkscape:document-units="pt" inkscape:current-layer="layer1" showgrid="true" units="pt" inkscape:snap-nodes="true" inkscape:snap-bbox="true" inkscape:bbox-nodes="true" />
<metadata id="metadata5">
<rdf:RDF>
<cc:Work rdf:about="">
<dc:format>image/svg+xml</dc:format>
<dc:type rdf:resource="http://purl.org/dc/dcmitype/StillImage" />
<dc:title></dc:title>
</cc:Work>
</rdf:RDF>
</metadata>
<g inkscape:label="Layer 1" inkscape:groupmode="layer" id="layer1">
<rect style="fill:none;stroke:#ff410b;stroke-width:0.42333332;stroke-linejoin:round;paint-order:markers fill stroke" id="rect6147" width="1.3977125" height="1.3977125" x="106.65602" y="46.854099" />
<text xml:space="preserve" style="font-size:4.23333311px;line-height:1.25;font-family:Bahnschrift;-inkscape-font-specification:Bahnschrift;fill:#f0f0f0;stroke-width:0.52916664" x="81.265114" y="31.790022" id="text817"><tspan sodipodi:role="line" id="tspan815" x="81.265114" y="31.790022" style="-inkscape-font-specification:Bahnschrift">Odepax</tspan></text>
<rect style="fill:#f0f0f0;stroke-width:0.52916664" id="rect4524" width="0.42333335" height="0.42333335" x="80.921165" y="27.022863" />
<g id="g4786" transform="translate(-10.343519,102.13201)">
<rect style="fill:#7f6b37;stroke-width:0.5291667" id="rect4549-2" width="0.70555556" height="0.70555562" x="81.78302" y="-63.60276" />
<rect y="-64.308319" x="81.78302" height="0.70555562" width="0.70555556" id="rect4732" style="fill:#523b00;stroke-width:0.5291667" />
<rect y="-65.013878" x="81.78302" height="0.70555562" width="0.70555556" id="rect4734" style="fill:#7f6b37;stroke-width:0.5291667" />
<rect style="fill:#523b00;stroke-width:0.5291667" id="rect4736" width="0.70555556" height="0.70555562" x="81.78302" y="-65.719429" />
<rect style="fill:#7f6b37;stroke-width:0.5291667" id="rect4738" width="0.70555556" height="0.70555562" x="81.78302" y="-66.424995" />
<rect y="-62.191647" x="81.78302" height="0.70555562" width="0.70555556" id="rect4740" style="fill:#744132;stroke-width:0.5291667" />
<rect style="fill:#420f00;stroke-width:0.5291667" id="rect4742" width="0.70555556" height="0.70555562" x="81.78302" y="-62.897205" />
<rect y="-67.130554" x="81.78302" height="0.70555562" width="0.70555556" id="rect4744" style="fill:#002f44;stroke-width:0.5291667" />
<rect y="-67.836113" x="81.78302" height="0.70555562" width="0.70555556" id="rect4746" style="fill:#336075;stroke-width:0.5291667" />
</g>
<text xml:space="preserve" style="font-size:4.23333359px;line-height:1.25;font-family:Bahnschrift;-inkscape-font-specification:Bahnschrift;fill:#ffffff;stroke-width:0.5291667" x="100.8866" y="31.853926" id="text4847"><tspan sodipodi:role="line" id="tspan4845" x="100.8866" y="31.853926">Dekadex</tspan></text>
<path style="fill:#ffffff;stroke-width:0.5291667" d="m 79.215772,36.087773 v 0.705381 0.705901 0.705384 0.705382 0.705901 0.705384 0.705382 h 0.705381 0.705901 0.705384 0.705382 v -0.705382 -0.705384 -0.705901 -0.705382 -0.705384 -0.705901 -0.705381 h -0.705382 -0.705384 -0.705901 z m 4.938715,0 v 0.705381 0.705901 h -0.705382 -0.705384 v 0.705384 0.705382 0.705901 0.705384 0.705382 h 0.705384 0.705382 0.7059 v -0.705382 -0.705384 -0.705901 -0.705382 -0.705384 -0.705901 -0.705381 z m 15.504479,0.0052 v 0.7059 h 0.705904 0.70539 0.70538 v -0.7059 h -0.70538 -0.70539 z m 2.116674,0.7059 v 0.705382 0.705385 0.7059 0.705382 0.705384 h 0.7059 v -0.705384 -0.705382 -0.7059 -0.705385 -0.705382 z m 0,3.527433 h -0.70538 -0.70539 -0.705904 v 0.705901 h 0.705904 0.70539 0.70538 z m 11.99462,-4.233333 v 0.7059 0.705382 h -0.70539 -0.7059 v 0.705385 0.7059 0.705382 0.705384 0.705901 h 0.7059 0.70539 0.70538 v -0.705901 -0.705384 -0.705382 -0.7059 -0.705385 -0.705382 -0.7059 z m -33.849107,0.700214 h 0.705901 0.705384 v 0.705901 0.705384 0.705382 0.705901 0.705384 h -0.705384 -0.705901 v -0.705384 -0.705901 -0.705382 -0.705384 z m 5.644619,0.705901 v 0.705384 0.705382 0.705901 0.705384 0.705382 h 0.705382 0.7059 0.705384 v -0.705382 h -0.705384 -0.7059 v -0.705384 h 0.7059 0.705384 v -0.705901 -0.705382 -0.705384 h -0.705384 -0.7059 z m 2.822048,0 v 0.705384 0.705382 0.705901 0.705384 0.705382 0.7059 0.705385 h 0.705901 v -0.705385 -0.7059 h 0.705384 0.705901 v -0.705382 -0.705384 -0.705901 -0.705382 -0.705384 h -0.705901 -0.705384 z m 2.822567,0 v 0.705384 h 0.705385 0.705904 v 0.705382 h -0.705904 -0.705385 v 0.705901 0.705384 0.705382 h 0.705385 0.705904 0.70538 v -0.705382 -0.705384 -0.705901 -0.705382 -0.705384 h -0.70538 -0.705904 z m 2.822049,0 v 0.705384 0.705382 h 0.7059 v -0.705382 -0.705384 z m 0.7059,1.410766 v 0.705901 h 0.70538 v -0.705901 z m 0.70538,0 h 0.70539 v -0.705382 -0.705384 h -0.70539 v 0.705384 z m 0,0.705901 v 0.705384 0.705382 h 0.70539 v -0.705382 -0.705384 z m -0.70538,0 h -0.7059 v 0.705384 0.705382 h 0.7059 v -0.705382 z m 4.92063,-2.1115 v 0.705385 0.7059 0.705382 h 0.705904 v -0.705382 -0.7059 -0.705385 z m 3.527954,0 v 0.705385 0.7059 0.705382 0.705384 0.705901 h 0.70538 0.70591 0.70538 v -0.705901 h -0.70538 -0.70591 v -0.705384 h 0.70591 0.70538 v -0.705382 -0.7059 -0.705385 h -0.70538 -0.70591 z m 2.82205,0 v 0.705385 0.7059 h 0.7059 v -0.7059 -0.705385 z m 0.7059,1.411285 v 0.705382 h 0.70539 V 38.91554 Z m 0.70539,0 h 0.70538 v -0.7059 h -0.70538 z m 0.70538,-0.7059 h 0.7059 v -0.705385 h -0.7059 z m -0.70538,1.411282 v 0.705384 h 0.70538 v -0.705384 z m 0.70538,0.705384 v 0.705901 h 0.7059 v -0.705901 z m -1.41077,-0.705384 h -0.7059 v 0.705384 0.705901 h 0.7059 v -0.705901 z m 2.82205,-2.116667 v 0.705385 h 0.70538 0.70591 v 0.7059 h -0.70591 -0.70538 v 0.705382 0.705384 0.705901 h 0.70538 0.70591 0.70538 v -0.705901 -0.705384 -0.705382 -0.7059 -0.705385 h -0.70538 -0.70591 z m 5.64462,0 v 0.705385 0.7059 0.705382 0.705384 0.705901 h 0.70538 0.70539 0.7059 v -0.705901 h -0.7059 -0.70539 v -0.705384 h 0.70539 0.7059 v -0.705382 -0.7059 -0.705385 h -0.7059 -0.70539 z m 2.82205,0 v 0.705385 0.7059 h 0.70538 v -0.7059 -0.705385 z m 0.70538,1.411285 v 0.705382 h 0.7059 V 38.91554 Z m 0.7059,0 h 0.70539 v -0.7059 -0.705385 h -0.70539 v 0.705385 z m 0,0.705382 v 0.705384 0.705901 h 0.70539 v -0.705901 -0.705384 z m -0.7059,0 h -0.70538 v 0.705384 0.705901 h 0.70538 v -0.705901 z m -35.259865,-1.41645 h 0.705382 v 0.705382 0.705901 0.705384 h -0.705382 v -0.705384 -0.705901 z m 2.822049,0 h 0.7059 v 0.705382 h -0.7059 z m 2.822567,0 h 0.705384 v 0.705382 0.705901 0.705384 h -0.705384 v -0.705384 -0.705901 z m 14.798579,0.0052 h 0.70591 v 0.7059 h -0.70591 z m 9.17257,0 h 0.70539 v 0.7059 0.705382 0.705384 h -0.70539 v -0.705384 -0.705382 z m 2.82205,0 h 0.70539 v 0.7059 h -0.70539 z m -23.971148,1.406115 h 0.705904 v 0.705384 h -0.705904 z m 18.326528,0.0052 h 0.70591 v 0.705384 h -0.70591 z" id="rect4524-0" inkscape:connector-curvature="0" />
<g id="g5905" transform="translate(-7.4083336,112.18334)">
<path sodipodi:nodetypes="cccccc" inkscape:connector-curvature="0" id="path5456" d="m 93.399774,-64.13537 h 1.197583 v -1.690804 h -1.692896 v 3.099555 h 1.905132" style="fill:none;stroke:#ffffff;stroke-width:0.42333335;stroke-linejoin:round" />
<path sodipodi:nodetypes="cccccc" inkscape:connector-curvature="0" id="path5456-5" d="m 99.746801,-64.413051 h -1.197589 v 1.690804 h 1.692898 v -3.099555 h -1.905134" style="fill:none;stroke:#ffffff;stroke-width:0.42333335;stroke-linejoin:round" />
<path sodipodi:nodetypes="ccccc" inkscape:connector-curvature="0" id="path5456-5-9" d="m 91.279967,-65.816624 h -1.197584 v 3.094369 h 1.692895 v -4.732037" style="fill:none;stroke:#ffffff;stroke-width:0.42333335;stroke-linejoin:round" />
<path sodipodi:nodetypes="ccccc" inkscape:connector-curvature="0" id="path5456-5-9-0" d="m 96.222164,-62.732335 h 1.197584 v -3.094369 h -1.692895 v 4.732037" style="fill:none;stroke:#ffffff;stroke-width:0.42333335;stroke-linejoin:round" />
<path sodipodi:nodetypes="ccccc" inkscape:connector-curvature="0" id="path5456-5-9-7" d="m 89.164402,-67.232807 h -2.606025 v 4.510615 h 2.394077 v -4.01878" style="fill:none;stroke:#ffffff;stroke-width:0.42333335;stroke-linejoin:round" />
<path style="fill:none;stroke:#ffffff;stroke-width:0.42333335;stroke-linejoin:round" d="m 103.27598,-65.826704 h -0.49519 l -0.42375,1.410197 v 0.281008 l 0.42375,1.40835 h 0.49511" id="path5535" inkscape:connector-curvature="0" sodipodi:nodetypes="cccccc" />
<path sodipodi:nodetypes="ccc" inkscape:connector-curvature="0" id="path5539" d="m 101.15792,-65.826704 h 0.49519 l -4.1e-4,1.195417" style="fill:none;stroke:#ffffff;stroke-width:0.42333335;stroke-linejoin:round" />
<path style="fill:none;stroke:#ffffff;stroke-width:0.42333335;stroke-linejoin:round" d="m 101.158,-62.727149 h 0.49519 l -4.1e-4,-1.410197 0.21125,1.5e-5" id="path5543" inkscape:connector-curvature="0" sodipodi:nodetypes="cccc" />
<path sodipodi:nodetypes="cccccc" inkscape:connector-curvature="0" id="path5456-2" d="m 123.01913,-64.135356 h 1.19758 v -1.690804 h -1.69289 v 3.099555 h 1.90513" style="fill:none;stroke:#ffffff;stroke-width:0.42333335;stroke-linejoin:round" />
<path sodipodi:nodetypes="cccccc" inkscape:connector-curvature="0" id="path5456-5-5" d="m 118.07751,-64.417416 h -1.19759 v 1.690804 h 1.6929 v -3.099555 h -1.90514" style="fill:none;stroke:#ffffff;stroke-width:0.42333335;stroke-linejoin:round" />
<path sodipodi:nodetypes="ccccc" inkscape:connector-curvature="0" id="path5456-5-9-74" d="m 120.8993,-65.816075 h -1.19758 v 3.094369 h 1.69289 v -4.732037" style="fill:none;stroke:#ffffff;stroke-width:0.42333335;stroke-linejoin:round" />
<path sodipodi:nodetypes="cccccc" inkscape:connector-curvature="0" id="path5456-5-9-7-3" d="m 106.78817,-62.720792 h 1.90507 l 0.7073,-0.706475 v -3.104444 l -0.7073,-0.704785 h -1.90339" style="fill:none;stroke:#ffffff;stroke-width:0.42333338;stroke-linejoin:round" />
<path style="fill:none;stroke:#ffffff;stroke-width:0.42333335;stroke-linejoin:round" d="M 127.25119,-65.826152 H 126.756 l -0.42375,1.410197 v 0.281008 l 0.42375,1.40835 h 0.49511" id="path5535-5" inkscape:connector-curvature="0" sodipodi:nodetypes="cccccc" />
<path sodipodi:nodetypes="ccc" inkscape:connector-curvature="0" id="path5539-6" d="m 125.13313,-65.826152 h 0.49519 l -4.1e-4,1.195417" style="fill:none;stroke:#ffffff;stroke-width:0.42333335;stroke-linejoin:round" />
<path style="fill:none;stroke:#ffffff;stroke-width:0.42333335;stroke-linejoin:round" d="m 125.13321,-62.726597 h 0.49519 l -4.1e-4,-1.410197 0.21125,1.5e-5" id="path5543-2" inkscape:connector-curvature="0" sodipodi:nodetypes="cccc" />
<path style="fill:none;stroke:#ffffff;stroke-width:0.42333335;stroke-linejoin:round" d="m 111.02473,-64.135348 h 1.19758 v -1.690804 h -1.69289 v 3.099555 h 1.90513" id="path5768" inkscape:connector-curvature="0" sodipodi:nodetypes="cccccc" />
<path style="fill:none;stroke:#ffffff;stroke-width:0.42333332;stroke-linejoin:round" d="m 113.35166,-63.920545 8e-5,1.41005" id="path5535-5-2" inkscape:connector-curvature="0" sodipodi:nodetypes="cc" />
<path sodipodi:nodetypes="cccc" inkscape:connector-curvature="0" id="path5539-6-02" d="m 115.9634,-65.822199 h -0.49519 l -0.705,1.191826 v 0.0035" style="fill:none;stroke:#ffffff;stroke-width:0.42333335;stroke-linejoin:round" />
<path style="fill:none;stroke:#ffffff;stroke-width:0.42333335;stroke-linejoin:round" d="m 115.9634,-62.722644 h -0.49527 l -0.705,-1.410197 -0.91285,1.5e-5" id="path5543-2-0" inkscape:connector-curvature="0" sodipodi:nodetypes="cccc" />
<path sodipodi:nodetypes="cc" inkscape:connector-curvature="0" id="path5812" d="m 113.35166,-66.037372 8e-5,1.410046" style="fill:none;stroke:#ffffff;stroke-width:0.42333332;stroke-linejoin:round" />
<path sodipodi:nodetypes="cc" inkscape:connector-curvature="0" id="path5812-0" d="m 107.00164,-66.037806 1.3e-4,2.118239" style="fill:none;stroke:#ffffff;stroke-width:0.42333332;stroke-linejoin:round" />
</g>
</g>
</svg>
